# xmcd CD database file
#
# Track frame offsets:
#	150
#	16650
#	32035
#	44300
#	52382
#	70930
#	77760
#	93772
#	103412
#	116872
#	130287
#	195225
#
# Disc length: 2766 seconds
#
# Revision: 4
# Processed by: cddbd v1.4PL0 Copyright (c) Steve Scherf et al.
# Submitted via: CDex 1.40Release
#
DISCID=a10acc0c
DTITLE=Willie Nelson - Willie And Family Live - Disc 1
DYEAR=1978
DGENRE=Country
TTITLE0=Whiskey River
TTITLE1=Stay A Little Longer
TTITLE2=Funny How Time Slips Away
TTITLE3=Crazy
TTITLE4=Night Life
TTITLE5=If You've Got The Money I've Got The Time
TTITLE6=Mammas Don't Let Your Babies Grow Up To Be Cowboys
TTITLE7=I Can Get Off On You
TTITLE8=If You Could Touch Her At All
TTITLE9=Good Hearted Woman
TTITLE10=Red Headed Stranger Medley
TTITLE11=Under The Double Eagle
EXTD=YEAR: 1978 ID3G: 2
EXTT0=
EXTT1=
EXTT2=
EXTT3=
EXTT4=
EXTT5=
EXTT6=
EXTT7=
EXTT8=
EXTT9=
EXTT10=
EXTT11=
PLAYORDER=
